<svg id="Group_26" data-name="Group 26" xmlns="http://www.w3.org/2000/svg" width="37.139" height="37.897" viewBox="0 0 37.139 37.897">
  <path id="Path_39" data-name="Path 39" d="M148.74,110.635a16.238,16.238,0,0,0-.4-3.874H130.55v7.032h10.443a9.26,9.26,0,0,1-3.874,6.148l-.035.235,5.625,4.358.39.039c3.579-3.305,5.642-8.169,5.642-13.938" transform="translate(-111.602 -91.265)" fill="#4285f4"/>
  <path id="Path_40" data-name="Path 40" d="M30.852,171.571a18.06,18.06,0,0,0,12.548-4.59l-5.979-4.632a11.215,11.215,0,0,1-6.569,1.895,11.407,11.407,0,0,1-10.78-7.874l-.222.019L14,160.915l-.076.213a18.935,18.935,0,0,0,16.927,10.443" transform="translate(-11.904 -133.674)" fill="#34a853"/>
  <path id="Path_41" data-name="Path 41" d="M8.169,83.658a11.665,11.665,0,0,1-.632-3.748,12.258,12.258,0,0,1,.61-3.748l-.011-.251-5.922-4.6-.194.092a18.908,18.908,0,0,0,0,17.011l6.148-4.758" transform="translate(0 -60.962)" fill="#fbbc05"/>
  <path id="Path_42" data-name="Path 42" d="M30.852,7.327a10.5,10.5,0,0,1,7.327,2.821l5.348-5.221A18.2,18.2,0,0,0,30.852,0,18.935,18.935,0,0,0,13.925,10.443L20.052,15.2a11.454,11.454,0,0,1,10.8-7.874" transform="translate(-11.904)" fill="#eb4335"/>
</svg>
